{
	"asset":{
		"generator":"Khronos glTF Blender I/O v3.6.28",
		"version":"2.0"
	},
	"extensionsUsed":[
		"KHR_materials_specular",
		"KHR_materials_ior"
	],
	"scene":0,
	"scenes":[
		{
			"name":"Scene",
			"nodes":[
				8
			]
		}
	],
	"nodes":[
		{
			"name":"Head",
			"rotation":[
				9.363314745769458e-08,
				0,
				0,
				1
			],
			"scale":[
				0.9999999403953552,
				1,
				1
			],
			"translation":[
				0,
				0.8824536204338074,
				0
			]
		},
		{
			"children":[
				0
			],
			"name":"Body",
			"rotation":[
				-8.363480219486519e-08,
				0,
				0,
				1
			],
			"scale":[
				0.9999999403953552,
				0.9999998807907104,
				0.9999998807907104
			]
		},
		{
			"name":"Arm",
			"rotation":[
				-0.7073308825492859,
				0,
				0,
				0.7068827152252197
			],
			"scale":[
				0.9999999403953552,
				0.9999999403953552,
				0.9999999403953552
			],
			"translation":[
				0.4396056830883026,
				0.7389273643493652,
				-0.177407369017601
			]
		},
		{
			"mesh":0,
			"name":"Body",
			"skin":0
		},
		{
			"mesh":1,
			"name":"Hand",
			"skin":0
		},
		{
			"mesh":2,
			"name":"Head",
			"skin":0
		},
		{
			"mesh":3,
			"name":"Rocket",
			"skin":0
		},
		{
			"mesh":4,
			"name":"Shotgun",
			"skin":0
		},
		{
			"children":[
				3,
				4,
				5,
				6,
				7,
				1,
				2
			],
			"name":"Armature",
			"scale":[
				0.9419696927070618,
				0.9419696927070618,
				0.9419696927070618
			]
		}
	],
	"animations":[
		{
			"channels":[
				{
					"sampler":0,
					"target":{
						"node":1,
						"path":"translation"
					}
				},
				{
					"sampler":1,
					"target":{
						"node":1,
						"path":"rotation"
					}
				},
				{
					"sampler":2,
					"target":{
						"node":1,
						"path":"scale"
					}
				},
				{
					"sampler":3,
					"target":{
						"node":0,
						"path":"translation"
					}
				},
				{
					"sampler":4,
					"target":{
						"node":0,
						"path":"rotation"
					}
				},
				{
					"sampler":5,
					"target":{
						"node":0,
						"path":"scale"
					}
				},
				{
					"sampler":6,
					"target":{
						"node":2,
						"path":"translation"
					}
				},
				{
					"sampler":7,
					"target":{
						"node":2,
						"path":"rotation"
					}
				},
				{
					"sampler":8,
					"target":{
						"node":2,
						"path":"scale"
					}
				}
			],
			"name":"Fall",
			"samplers":[
				{
					"input":31,
					"interpolation":"LINEAR",
					"output":32
				},
				{
					"input":31,
					"interpolation":"LINEAR",
					"output":33
				},
				{
					"input":34,
					"interpolation":"STEP",
					"output":35
				},
				{
					"input":31,
					"interpolation":"LINEAR",
					"output":36
				},
				{
					"input":31,
					"interpolation":"LINEAR",
					"output":37
				},
				{
					"input":34,
					"interpolation":"STEP",
					"output":38
				},
				{
					"input":34,
					"interpolation":"STEP",
					"output":39
				},
				{
					"input":31,
					"interpolation":"LINEAR",
					"output":40
				},
				{
					"input":34,
					"interpolation":"STEP",
					"output":41
				}
			]
		},
		{
			"channels":[
				{
					"sampler":0,
					"target":{
						"node":1,
						"path":"translation"
					}
				},
				{
					"sampler":1,
					"target":{
						"node":1,
						"path":"rotation"
					}
				},
				{
					"sampler":2,
					"target":{
						"node":1,
						"path":"scale"
					}
				},
				{
					"sampler":3,
					"target":{
						"node":0,
						"path":"translation"
					}
				},
				{
					"sampler":4,
					"target":{
						"node":0,
						"path":"rotation"
					}
				},
				{
					"sampler":5,
					"target":{
						"node":0,
						"path":"scale"
					}
				},
				{
					"sampler":6,
					"target":{
						"node":2,
						"path":"translation"
					}
				},
				{
					"sampler":7,
					"target":{
						"node":2,
						"path":"rotation"
					}
				},
				{
					"sampler":8,
					"target":{
						"node":2,
						"path":"scale"
					}
				}
			],
			"name":"Idle",
			"samplers":[
				{
					"input":42,
					"interpolation":"STEP",
					"output":43
				},
				{
					"input":42,
					"interpolation":"STEP",
					"output":44
				},
				{
					"input":45,
					"interpolation":"LINEAR",
					"output":46
				},
				{
					"input":42,
					"interpolation":"STEP",
					"output":47
				},
				{
					"input":42,
					"interpolation":"STEP",
					"output":48
				},
				{
					"input":42,
					"interpolation":"STEP",
					"output":49
				},
				{
					"input":45,
					"interpolation":"LINEAR",
					"output":50
				},
				{
					"input":45,
					"interpolation":"LINEAR",
					"output":51
				},
				{
					"input":42,
					"interpolation":"STEP",
					"output":52
				}
			]
		},
		{
			"channels":[
				{
					"sampler":0,
					"target":{
						"node":1,
						"path":"translation"
					}
				},
				{
					"sampler":1,
					"target":{
						"node":1,
						"path":"rotation"
					}
				},
				{
					"sampler":2,
					"target":{
						"node":1,
						"path":"scale"
					}
				},
				{
					"sampler":3,
					"target":{
						"node":0,
						"path":"translation"
					}
				},
				{
					"sampler":4,
					"target":{
						"node":0,
						"path":"rotation"
					}
				},
				{
					"sampler":5,
					"target":{
						"node":0,
						"path":"scale"
					}
				},
				{
					"sampler":6,
					"target":{
						"node":2,
						"path":"translation"
					}
				},
				{
					"sampler":7,
					"target":{
						"node":2,
						"path":"rotation"
					}
				},
				{
					"sampler":8,
					"target":{
						"node":2,
						"path":"scale"
					}
				}
			],
			"name":"Run",
			"samplers":[
				{
					"input":34,
					"interpolation":"STEP",
					"output":53
				},
				{
					"input":31,
					"interpolation":"LINEAR",
					"output":54
				},
				{
					"input":31,
					"interpolation":"LINEAR",
					"output":55
				},
				{
					"input":34,
					"interpolation":"STEP",
					"output":56
				},
				{
					"input":34,
					"interpolation":"STEP",
					"output":57
				},
				{
					"input":34,
					"interpolation":"STEP",
					"output":58
				},
				{
					"input":31,
					"interpolation":"LINEAR",
					"output":59
				},
				{
					"input":31,
					"interpolation":"LINEAR",
					"output":60
				},
				{
					"input":31,
					"interpolation":"LINEAR",
					"output":61
				}
			]
		}
	],
	"materials":[
		{
			"doubleSided":true,
			"extensions":{
				"KHR_materials_specular":{
					"specularColorFactor":[
						0,
						0,
						0
					]
				},
				"KHR_materials_ior":{
					"ior":1.4500000476837158
				}
			},
			"name":"Coat",
			"pbrMetallicRoughness":{
				"baseColorTexture":{
					"index":0
				},
				"metallicFactor":0
			}
		},
		{
			"doubleSided":true,
			"extensions":{
				"KHR_materials_specular":{
					"specularColorFactor":[
						0,
						0,
						0
					]
				},
				"KHR_materials_ior":{
					"ior":1.4500000476837158
				}
			},
			"name":"Head",
			"pbrMetallicRoughness":{
				"baseColorTexture":{
					"index":1
				},
				"roughnessFactor":0.3590909242630005
			}
		},
		{
			"doubleSided":true,
			"extensions":{
				"KHR_materials_specular":{
					"specularColorFactor":[
						0,
						0,
						0
					]
				},
				"KHR_materials_ior":{
					"ior":1.4500000476837158
				}
			},
			"name":"Material",
			"pbrMetallicRoughness":{
				"baseColorTexture":{
					"index":2
				},
				"metallicFactor":0
			}
		},
		{
			"doubleSided":true,
			"extensions":{
				"KHR_materials_specular":{
					"specularColorFactor":[
						0,
						0,
						0
					]
				},
				"KHR_materials_ior":{
					"ior":1.4500000476837158
				}
			},
			"name":"Material.001",
			"pbrMetallicRoughness":{
				"baseColorTexture":{
					"index":3
				},
				"metallicFactor":0
			}
		}
	],
	"meshes":[
		{
			"name":"Circle",
			"primitives":[
				{
					"attributes":{
						"POSITION":0,
						"NORMAL":1,
						"TEXCOORD_0":2,
						"JOINTS_0":3,
						"WEIGHTS_0":4
					},
					"indices":5,
					"material":0
				}
			]
		},
		{
			"name":"Sphere.008",
			"primitives":[
				{
					"attributes":{
						"POSITION":7,
						"NORMAL":8,
						"TEXCOORD_0":9,
						"JOINTS_0":10,
						"WEIGHTS_0":11
					},
					"indices":12,
					"material":0
				}
			]
		},
		{
			"name":"Sphere",
			"primitives":[
				{
					"attributes":{
						"POSITION":13,
						"NORMAL":14,
						"TEXCOORD_0":15,
						"JOINTS_0":16,
						"WEIGHTS_0":17
					},
					"indices":18,
					"material":1
				}
			]
		},
		{
			"name":"Cube",
			"primitives":[
				{
					"attributes":{
						"POSITION":19,
						"NORMAL":20,
						"TEXCOORD_0":21,
						"JOINTS_0":22,
						"WEIGHTS_0":23
					},
					"indices":24,
					"material":2
				}
			]
		},
		{
			"name":"Sphere.010",
			"primitives":[
				{
					"attributes":{
						"POSITION":25,
						"NORMAL":26,
						"TEXCOORD_0":27,
						"JOINTS_0":28,
						"WEIGHTS_0":29
					},
					"indices":30,
					"material":3
				}
			]
		}
	],
	"textures":[
		{
			"sampler":0,
			"source":0
		},
		{
			"sampler":1,
			"source":1
		},
		{
			"sampler":0,
			"source":2
		},
		{
			"sampler":0,
			"source":3
		}
	],
	"images":[
		{
			"mimeType":"image/png",
			"name":"Coat",
			"uri":"../Textures/DrizzyCoat.png"
		},
		{
			"mimeType":"image/png",
			"name":"Head",
			"uri":"../Textures/DrizzyHead.png"
		},
		{
			"mimeType":"image/png",
			"name":"Rocket",
			"uri":"../Textures/Rocket.png"
		},
		{
			"mimeType":"image/png",
			"name":"Nun.png.002",
			"uri":"../Textures/Nun.png"
		}
	],
	"skins":[
		{
			"inverseBindMatrices":6,
			"joints":[
				1,
				0,
				2
			],
			"name":"Armature"
		}
	],
	"accessors":[
		{
			"bufferView":0,
			"componentType":5126,
			"count":117,
			"max":[
				0.5574130415916443,
				1.1586215496063232,
				0.5574130415916443
			],
			"min":[
				-0.5574130415916443,
				0,
				-0.5574130415916443
			],
			"type":"VEC3"
		},
		{
			"bufferView":1,
			"componentType":5126,
			"count":117,
			"type":"VEC3"
		},
		{
			"bufferView":2,
			"componentType":5126,
			"count":117,
			"type":"VEC2"
		},
		{
			"bufferView":3,
			"componentType":5121,
			"count":117,
			"type":"VEC4"
		},
		{
			"bufferView":4,
			"componentType":5126,
			"count":117,
			"type":"VEC4"
		},
		{
			"bufferView":5,
			"componentType":5123,
			"count":240,
			"type":"SCALAR"
		},
		{
			"bufferView":6,
			"componentType":5126,
			"count":3,
			"type":"MAT4"
		},
		{
			"bufferView":7,
			"componentType":5126,
			"count":18,
			"max":[
				0.5100299119949341,
				0.8104971051216125,
				-0.08414635062217712
			],
			"min":[
				0.16456615924835205,
				0.5939245820045471,
				-0.8409344553947449
			],
			"type":"VEC3"
		},
		{
			"bufferView":8,
			"componentType":5126,
			"count":18,
			"type":"VEC3"
		},
		{
			"bufferView":9,
			"componentType":5126,
			"count":18,
			"type":"VEC2"
		},
		{
			"bufferView":10,
			"componentType":5121,
			"count":18,
			"type":"VEC4"
		},
		{
			"bufferView":11,
			"componentType":5126,
			"count":18,
			"type":"VEC4"
		},
		{
			"bufferView":12,
			"componentType":5123,
			"count":72,
			"type":"SCALAR"
		},
		{
			"bufferView":13,
			"componentType":5126,
			"count":78,
			"max":[
				0.45783787965774536,
				1.7469204664230347,
				0.4578378200531006
			],
			"min":[
				-0.45783787965774536,
				0.8312445878982544,
				-0.4578379690647125
			],
			"type":"VEC3"
		},
		{
			"bufferView":14,
			"componentType":5126,
			"count":78,
			"type":"VEC3"
		},
		{
			"bufferView":15,
			"componentType":5126,
			"count":78,
			"type":"VEC2"
		},
		{
			"bufferView":16,
			"componentType":5121,
			"count":78,
			"type":"VEC4"
		},
		{
			"bufferView":17,
			"componentType":5126,
			"count":78,
			"type":"VEC4"
		},
		{
			"bufferView":18,
			"componentType":5123,
			"count":336,
			"type":"SCALAR"
		},
		{
			"bufferView":19,
			"componentType":5126,
			"count":69,
			"max":[
				0.558721661567688,
				0.9939834475517273,
				-1.0760314464569092
			],
			"min":[
				0.15929649770259857,
				0.5945581793785095,
				-1.8318949937820435
			],
			"type":"VEC3"
		},
		{
			"bufferView":20,
			"componentType":5126,
			"count":69,
			"type":"VEC3"
		},
		{
			"bufferView":21,
			"componentType":5126,
			"count":69,
			"type":"VEC2"
		},
		{
			"bufferView":22,
			"componentType":5121,
			"count":69,
			"type":"VEC4"
		},
		{
			"bufferView":23,
			"componentType":5126,
			"count":69,
			"type":"VEC4"
		},
		{
			"bufferView":24,
			"componentType":5123,
			"count":120,
			"type":"SCALAR"
		},
		{
			"bufferView":25,
			"componentType":5126,
			"count":25,
			"max":[
				0.4735338091850281,
				0.9087952375411987,
				-0.17957238852977753
			],
			"min":[
				0.24448424577713013,
				0.6163415908813477,
				-1.4546279907226562
			],
			"type":"VEC3"
		},
		{
			"bufferView":26,
			"componentType":5126,
			"count":25,
			"type":"VEC3"
		},
		{
			"bufferView":27,
			"componentType":5126,
			"count":25,
			"type":"VEC2"
		},
		{
			"bufferView":28,
			"componentType":5121,
			"count":25,
			"type":"VEC4"
		},
		{
			"bufferView":29,
			"componentType":5126,
			"count":25,
			"type":"VEC4"
		},
		{
			"bufferView":30,
			"componentType":5123,
			"count":84,
			"type":"SCALAR"
		},
		{
			"bufferView":31,
			"componentType":5126,
			"count":31,
			"max":[
				1.2916666666666667
			],
			"min":[
				0.041666666666666664
			],
			"type":"SCALAR"
		},
		{
			"bufferView":32,
			"componentType":5126,
			"count":31,
			"type":"VEC3"
		},
		{
			"bufferView":33,
			"componentType":5126,
			"count":31,
			"type":"VEC4"
		},
		{
			"bufferView":34,
			"componentType":5126,
			"count":2,
			"max":[
				1.2916666666666667
			],
			"min":[
				0.041666666666666664
			],
			"type":"SCALAR"
		},
		{
			"bufferView":35,
			"componentType":5126,
			"count":2,
			"type":"VEC3"
		},
		{
			"bufferView":36,
			"componentType":5126,
			"count":31,
			"type":"VEC3"
		},
		{
			"bufferView":37,
			"componentType":5126,
			"count":31,
			"type":"VEC4"
		},
		{
			"bufferView":38,
			"componentType":5126,
			"count":2,
			"type":"VEC3"
		},
		{
			"bufferView":39,
			"componentType":5126,
			"count":2,
			"type":"VEC3"
		},
		{
			"bufferView":40,
			"componentType":5126,
			"count":31,
			"type":"VEC4"
		},
		{
			"bufferView":41,
			"componentType":5126,
			"count":2,
			"type":"VEC3"
		},
		{
			"bufferView":42,
			"componentType":5126,
			"count":2,
			"max":[
				2.7083333333333335
			],
			"min":[
				0.041666666666666664
			],
			"type":"SCALAR"
		},
		{
			"bufferView":43,
			"componentType":5126,
			"count":2,
			"type":"VEC3"
		},
		{
			"bufferView":44,
			"componentType":5126,
			"count":2,
			"type":"VEC4"
		},
		{
			"bufferView":45,
			"componentType":5126,
			"count":65,
			"max":[
				2.7083333333333335
			],
			"min":[
				0.041666666666666664
			],
			"type":"SCALAR"
		},
		{
			"bufferView":46,
			"componentType":5126,
			"count":65,
			"type":"VEC3"
		},
		{
			"bufferView":47,
			"componentType":5126,
			"count":2,
			"type":"VEC3"
		},
		{
			"bufferView":48,
			"componentType":5126,
			"count":2,
			"type":"VEC4"
		},
		{
			"bufferView":49,
			"componentType":5126,
			"count":2,
			"type":"VEC3"
		},
		{
			"bufferView":50,
			"componentType":5126,
			"count":65,
			"type":"VEC3"
		},
		{
			"bufferView":51,
			"componentType":5126,
			"count":65,
			"type":"VEC4"
		},
		{
			"bufferView":52,
			"componentType":5126,
			"count":2,
			"type":"VEC3"
		},
		{
			"bufferView":53,
			"componentType":5126,
			"count":2,
			"type":"VEC3"
		},
		{
			"bufferView":54,
			"componentType":5126,
			"count":31,
			"type":"VEC4"
		},
		{
			"bufferView":55,
			"componentType":5126,
			"count":31,
			"type":"VEC3"
		},
		{
			"bufferView":56,
			"componentType":5126,
			"count":2,
			"type":"VEC3"
		},
		{
			"bufferView":57,
			"componentType":5126,
			"count":2,
			"type":"VEC4"
		},
		{
			"bufferView":58,
			"componentType":5126,
			"count":2,
			"type":"VEC3"
		},
		{
			"bufferView":59,
			"componentType":5126,
			"count":31,
			"type":"VEC3"
		},
		{
			"bufferView":60,
			"componentType":5126,
			"count":31,
			"type":"VEC4"
		},
		{
			"bufferView":61,
			"componentType":5126,
			"count":31,
			"type":"VEC3"
		}
	],
	"bufferViews":[
		{
			"buffer":0,
			"byteLength":1404,
			"byteOffset":0,
			"target":34962
		},
		{
			"buffer":0,
			"byteLength":1404,
			"byteOffset":1404,
			"target":34962
		},
		{
			"buffer":0,
			"byteLength":936,
			"byteOffset":2808,
			"target":34962
		},
		{
			"buffer":0,
			"byteLength":468,
			"byteOffset":3744,
			"target":34962
		},
		{
			"buffer":0,
			"byteLength":1872,
			"byteOffset":4212,
			"target":34962
		},
		{
			"buffer":0,
			"byteLength":480,
			"byteOffset":6084,
			"target":34963
		},
		{
			"buffer":0,
			"byteLength":192,
			"byteOffset":6564
		},
		{
			"buffer":0,
			"byteLength":216,
			"byteOffset":6756,
			"target":34962
		},
		{
			"buffer":0,
			"byteLength":216,
			"byteOffset":6972,
			"target":34962
		},
		{
			"buffer":0,
			"byteLength":144,
			"byteOffset":7188,
			"target":34962
		},
		{
			"buffer":0,
			"byteLength":72,
			"byteOffset":7332,
			"target":34962
		},
		{
			"buffer":0,
			"byteLength":288,
			"byteOffset":7404,
			"target":34962
		},
		{
			"buffer":0,
			"byteLength":144,
			"byteOffset":7692,
			"target":34963
		},
		{
			"buffer":0,
			"byteLength":936,
			"byteOffset":7836,
			"target":34962
		},
		{
			"buffer":0,
			"byteLength":936,
			"byteOffset":8772,
			"target":34962
		},
		{
			"buffer":0,
			"byteLength":624,
			"byteOffset":9708,
			"target":34962
		},
		{
			"buffer":0,
			"byteLength":312,
			"byteOffset":10332,
			"target":34962
		},
		{
			"buffer":0,
			"byteLength":1248,
			"byteOffset":10644,
			"target":34962
		},
		{
			"buffer":0,
			"byteLength":672,
			"byteOffset":11892,
			"target":34963
		},
		{
			"buffer":0,
			"byteLength":828,
			"byteOffset":12564,
			"target":34962
		},
		{
			"buffer":0,
			"byteLength":828,
			"byteOffset":13392,
			"target":34962
		},
		{
			"buffer":0,
			"byteLength":552,
			"byteOffset":14220,
			"target":34962
		},
		{
			"buffer":0,
			"byteLength":276,
			"byteOffset":14772,
			"target":34962
		},
		{
			"buffer":0,
			"byteLength":1104,
			"byteOffset":15048,
			"target":34962
		},
		{
			"buffer":0,
			"byteLength":240,
			"byteOffset":16152,
			"target":34963
		},
		{
			"buffer":0,
			"byteLength":300,
			"byteOffset":16392,
			"target":34962
		},
		{
			"buffer":0,
			"byteLength":300,
			"byteOffset":16692,
			"target":34962
		},
		{
			"buffer":0,
			"byteLength":200,
			"byteOffset":16992,
			"target":34962
		},
		{
			"buffer":0,
			"byteLength":100,
			"byteOffset":17192,
			"target":34962
		},
		{
			"buffer":0,
			"byteLength":400,
			"byteOffset":17292,
			"target":34962
		},
		{
			"buffer":0,
			"byteLength":168,
			"byteOffset":17692,
			"target":34963
		},
		{
			"buffer":0,
			"byteLength":124,
			"byteOffset":17860
		},
		{
			"buffer":0,
			"byteLength":372,
			"byteOffset":17984
		},
		{
			"buffer":0,
			"byteLength":496,
			"byteOffset":18356
		},
		{
			"buffer":0,
			"byteLength":8,
			"byteOffset":18852
		},
		{
			"buffer":0,
			"byteLength":24,
			"byteOffset":18860
		},
		{
			"buffer":0,
			"byteLength":372,
			"byteOffset":18884
		},
		{
			"buffer":0,
			"byteLength":496,
			"byteOffset":19256
		},
		{
			"buffer":0,
			"byteLength":24,
			"byteOffset":19752
		},
		{
			"buffer":0,
			"byteLength":24,
			"byteOffset":19776
		},
		{
			"buffer":0,
			"byteLength":496,
			"byteOffset":19800
		},
		{
			"buffer":0,
			"byteLength":24,
			"byteOffset":20296
		},
		{
			"buffer":0,
			"byteLength":8,
			"byteOffset":20320
		},
		{
			"buffer":0,
			"byteLength":24,
			"byteOffset":20328
		},
		{
			"buffer":0,
			"byteLength":32,
			"byteOffset":20352
		},
		{
			"buffer":0,
			"byteLength":260,
			"byteOffset":20384
		},
		{
			"buffer":0,
			"byteLength":780,
			"byteOffset":20644
		},
		{
			"buffer":0,
			"byteLength":24,
			"byteOffset":21424
		},
		{
			"buffer":0,
			"byteLength":32,
			"byteOffset":21448
		},
		{
			"buffer":0,
			"byteLength":24,
			"byteOffset":21480
		},
		{
			"buffer":0,
			"byteLength":780,
			"byteOffset":21504
		},
		{
			"buffer":0,
			"byteLength":1040,
			"byteOffset":22284
		},
		{
			"buffer":0,
			"byteLength":24,
			"byteOffset":23324
		},
		{
			"buffer":0,
			"byteLength":24,
			"byteOffset":23348
		},
		{
			"buffer":0,
			"byteLength":496,
			"byteOffset":23372
		},
		{
			"buffer":0,
			"byteLength":372,
			"byteOffset":23868
		},
		{
			"buffer":0,
			"byteLength":24,
			"byteOffset":24240
		},
		{
			"buffer":0,
			"byteLength":32,
			"byteOffset":24264
		},
		{
			"buffer":0,
			"byteLength":24,
			"byteOffset":24296
		},
		{
			"buffer":0,
			"byteLength":372,
			"byteOffset":24320
		},
		{
			"buffer":0,
			"byteLength":496,
			"byteOffset":24692
		},
		{
			"buffer":0,
			"byteLength":372,
			"byteOffset":25188
		}
	],
	"samplers":[
		{
			"magFilter":9729,
			"minFilter":9987
		},
		{
			"magFilter":9728,
			"minFilter":9984
		}
	],
	"buffers":[
		{
			"byteLength":25560,
			"uri":"Drizzy.bin"
		}
	]
}
