{
	"asset":{
		"generator":"Khronos glTF Blender I/O v3.6.28",
		"version":"2.0"
	},
	"extensionsUsed":[
		"KHR_materials_specular",
		"KHR_materials_ior"
	],
	"scene":0,
	"scenes":[
		{
			"name":"Scene",
			"nodes":[
				8
			]
		}
	],
	"nodes":[
		{
			"name":"Head",
			"rotation":[
				9.363315456312193e-08,
				0,
				0,
				1
			],
			"translation":[
				0,
				0.8312445878982544,
				0
			]
		},
		{
			"children":[
				0
			],
			"name":"Body",
			"rotation":[
				-5.3832476254456196e-08,
				0,
				0,
				1
			]
		},
		{
			"name":"Arm",
			"rotation":[
				-0.7073308825492859,
				0,
				0,
				0.7068827152252197
			],
			"scale":[
				1,
				0.9999999403953552,
				1
			],
			"translation":[
				0.4140952527523041,
				0.6960472464561462,
				-0.16711238026618958
			]
		},
		{
			"mesh":0,
			"name":"Body",
			"skin":0
		},
		{
			"mesh":1,
			"name":"Hand",
			"skin":0
		},
		{
			"mesh":2,
			"name":"Head",
			"skin":0
		},
		{
			"mesh":3,
			"name":"Rocket",
			"skin":0
		},
		{
			"mesh":4,
			"name":"Shotgun",
			"skin":0
		},
		{
			"children":[
				3,
				4,
				5,
				6,
				7,
				1,
				2
			],
			"name":"Armature"
		}
	],
	"animations":[
		{
			"channels":[
				{
					"sampler":0,
					"target":{
						"node":1,
						"path":"translation"
					}
				},
				{
					"sampler":1,
					"target":{
						"node":1,
						"path":"rotation"
					}
				},
				{
					"sampler":2,
					"target":{
						"node":1,
						"path":"scale"
					}
				},
				{
					"sampler":3,
					"target":{
						"node":0,
						"path":"translation"
					}
				},
				{
					"sampler":4,
					"target":{
						"node":0,
						"path":"rotation"
					}
				},
				{
					"sampler":5,
					"target":{
						"node":0,
						"path":"scale"
					}
				},
				{
					"sampler":6,
					"target":{
						"node":2,
						"path":"translation"
					}
				},
				{
					"sampler":7,
					"target":{
						"node":2,
						"path":"rotation"
					}
				},
				{
					"sampler":8,
					"target":{
						"node":2,
						"path":"scale"
					}
				}
			],
			"name":"Fall",
			"samplers":[
				{
					"input":31,
					"interpolation":"LINEAR",
					"output":32
				},
				{
					"input":31,
					"interpolation":"LINEAR",
					"output":33
				},
				{
					"input":34,
					"interpolation":"STEP",
					"output":35
				},
				{
					"input":31,
					"interpolation":"LINEAR",
					"output":36
				},
				{
					"input":31,
					"interpolation":"LINEAR",
					"output":37
				},
				{
					"input":34,
					"interpolation":"STEP",
					"output":38
				},
				{
					"input":34,
					"interpolation":"STEP",
					"output":39
				},
				{
					"input":31,
					"interpolation":"LINEAR",
					"output":40
				},
				{
					"input":34,
					"interpolation":"STEP",
					"output":41
				}
			]
		},
		{
			"channels":[
				{
					"sampler":0,
					"target":{
						"node":1,
						"path":"translation"
					}
				},
				{
					"sampler":1,
					"target":{
						"node":1,
						"path":"rotation"
					}
				},
				{
					"sampler":2,
					"target":{
						"node":1,
						"path":"scale"
					}
				},
				{
					"sampler":3,
					"target":{
						"node":0,
						"path":"translation"
					}
				},
				{
					"sampler":4,
					"target":{
						"node":0,
						"path":"rotation"
					}
				},
				{
					"sampler":5,
					"target":{
						"node":0,
						"path":"scale"
					}
				},
				{
					"sampler":6,
					"target":{
						"node":2,
						"path":"translation"
					}
				},
				{
					"sampler":7,
					"target":{
						"node":2,
						"path":"rotation"
					}
				},
				{
					"sampler":8,
					"target":{
						"node":2,
						"path":"scale"
					}
				}
			],
			"name":"Idle",
			"samplers":[
				{
					"input":42,
					"interpolation":"STEP",
					"output":43
				},
				{
					"input":42,
					"interpolation":"STEP",
					"output":44
				},
				{
					"input":45,
					"interpolation":"LINEAR",
					"output":46
				},
				{
					"input":42,
					"interpolation":"STEP",
					"output":47
				},
				{
					"input":42,
					"interpolation":"STEP",
					"output":48
				},
				{
					"input":42,
					"interpolation":"STEP",
					"output":49
				},
				{
					"input":45,
					"interpolation":"LINEAR",
					"output":50
				},
				{
					"input":45,
					"interpolation":"LINEAR",
					"output":51
				},
				{
					"input":42,
					"interpolation":"STEP",
					"output":52
				}
			]
		},
		{
			"channels":[
				{
					"sampler":0,
					"target":{
						"node":1,
						"path":"translation"
					}
				},
				{
					"sampler":1,
					"target":{
						"node":1,
						"path":"rotation"
					}
				},
				{
					"sampler":2,
					"target":{
						"node":1,
						"path":"scale"
					}
				},
				{
					"sampler":3,
					"target":{
						"node":0,
						"path":"translation"
					}
				},
				{
					"sampler":4,
					"target":{
						"node":0,
						"path":"rotation"
					}
				},
				{
					"sampler":5,
					"target":{
						"node":0,
						"path":"scale"
					}
				},
				{
					"sampler":6,
					"target":{
						"node":2,
						"path":"translation"
					}
				},
				{
					"sampler":7,
					"target":{
						"node":2,
						"path":"rotation"
					}
				},
				{
					"sampler":8,
					"target":{
						"node":2,
						"path":"scale"
					}
				}
			],
			"name":"Run",
			"samplers":[
				{
					"input":34,
					"interpolation":"STEP",
					"output":53
				},
				{
					"input":31,
					"interpolation":"LINEAR",
					"output":54
				},
				{
					"input":31,
					"interpolation":"LINEAR",
					"output":55
				},
				{
					"input":34,
					"interpolation":"STEP",
					"output":56
				},
				{
					"input":34,
					"interpolation":"STEP",
					"output":57
				},
				{
					"input":34,
					"interpolation":"STEP",
					"output":58
				},
				{
					"input":31,
					"interpolation":"LINEAR",
					"output":59
				},
				{
					"input":31,
					"interpolation":"LINEAR",
					"output":60
				},
				{
					"input":31,
					"interpolation":"LINEAR",
					"output":61
				}
			]
		}
	],
	"materials":[
		{
			"doubleSided":true,
			"extensions":{
				"KHR_materials_specular":{
					"specularColorFactor":[
						0,
						0,
						0
					]
				},
				"KHR_materials_ior":{
					"ior":1.4500000476837158
				}
			},
			"name":"Coat",
			"pbrMetallicRoughness":{
				"baseColorTexture":{
					"index":0
				},
				"metallicFactor":0
			}
		},
		{
			"doubleSided":true,
			"extensions":{
				"KHR_materials_specular":{
					"specularColorFactor":[
						0,
						0,
						0
					]
				},
				"KHR_materials_ior":{
					"ior":1.4500000476837158
				}
			},
			"name":"Head",
			"pbrMetallicRoughness":{
				"baseColorTexture":{
					"index":1
				},
				"roughnessFactor":0.3590909242630005
			}
		},
		{
			"doubleSided":true,
			"extensions":{
				"KHR_materials_specular":{
					"specularColorFactor":[
						0,
						0,
						0
					]
				},
				"KHR_materials_ior":{
					"ior":1.4500000476837158
				}
			},
			"name":"Material",
			"pbrMetallicRoughness":{
				"baseColorTexture":{
					"index":2
				},
				"metallicFactor":0
			}
		},
		{
			"doubleSided":true,
			"extensions":{
				"KHR_materials_specular":{
					"specularColorFactor":[
						0,
						0,
						0
					]
				},
				"KHR_materials_ior":{
					"ior":1.4500000476837158
				}
			},
			"name":"Material.001",
			"pbrMetallicRoughness":{
				"baseColorTexture":{
					"index":3
				},
				"metallicFactor":0
			}
		}
	],
	"meshes":[
		{
			"name":"Circle",
			"primitives":[
				{
					"attributes":{
						"POSITION":0,
						"NORMAL":1,
						"TEXCOORD_0":2,
						"JOINTS_0":3,
						"WEIGHTS_0":4
					},
					"indices":5,
					"material":0
				}
			]
		},
		{
			"name":"Sphere.008",
			"primitives":[
				{
					"attributes":{
						"POSITION":7,
						"NORMAL":8,
						"TEXCOORD_0":9,
						"JOINTS_0":10,
						"WEIGHTS_0":11
					},
					"indices":12,
					"material":0
				}
			]
		},
		{
			"name":"Sphere",
			"primitives":[
				{
					"attributes":{
						"POSITION":13,
						"NORMAL":14,
						"TEXCOORD_0":15,
						"JOINTS_0":16,
						"WEIGHTS_0":17
					},
					"indices":18,
					"material":1
				}
			]
		},
		{
			"name":"Cube",
			"primitives":[
				{
					"attributes":{
						"POSITION":19,
						"NORMAL":20,
						"TEXCOORD_0":21,
						"JOINTS_0":22,
						"WEIGHTS_0":23
					},
					"indices":24,
					"material":2
				}
			]
		},
		{
			"name":"Sphere.010",
			"primitives":[
				{
					"attributes":{
						"POSITION":25,
						"NORMAL":26,
						"TEXCOORD_0":27,
						"JOINTS_0":28,
						"WEIGHTS_0":29
					},
					"indices":30,
					"material":3
				}
			]
		}
	],
	"textures":[
		{
			"sampler":0,
			"source":0
		},
		{
			"sampler":0,
			"source":1
		},
		{
			"sampler":0,
			"source":2
		},
		{
			"sampler":0,
			"source":3
		}
	],
	"images":[
		{
			"mimeType":"image/png",
			"name":"Coat",
			"uri":"../Textures/DrizzyCoat.png"
		},
		{
			"mimeType":"image/png",
			"name":"Head",
			"uri":"../Textures/DrizzyHead.png"
		},
		{
			"mimeType":"image/png",
			"name":"Rocket",
			"uri":"../Textures/Rocket.png"
		},
		{
			"mimeType":"image/png",
			"name":"DrizzyGun",
			"uri":"../Textures/DrizzyGun.png"
		}
	],
	"skins":[
		{
			"inverseBindMatrices":6,
			"joints":[
				1,
				0,
				2
			],
			"name":"Armature"
		}
	],
	"accessors":[
		{
			"bufferView":0,
			"componentType":5126,
			"count":97,
			"max":[
				0.5574130415916443,
				1.1586215496063232,
				0.5574130415916443
			],
			"min":[
				-0.5574130415916443,
				0,
				-0.5574130415916443
			],
			"type":"VEC3"
		},
		{
			"bufferView":1,
			"componentType":5126,
			"count":97,
			"type":"VEC3"
		},
		{
			"bufferView":2,
			"componentType":5126,
			"count":97,
			"type":"VEC2"
		},
		{
			"bufferView":3,
			"componentType":5121,
			"count":97,
			"type":"VEC4"
		},
		{
			"bufferView":4,
			"componentType":5126,
			"count":97,
			"type":"VEC4"
		},
		{
			"bufferView":5,
			"componentType":5123,
			"count":240,
			"type":"SCALAR"
		},
		{
			"bufferView":6,
			"componentType":5126,
			"count":3,
			"type":"MAT4"
		},
		{
			"bufferView":7,
			"componentType":5126,
			"count":18,
			"max":[
				0.5100299119949341,
				0.8104971051216125,
				-0.08414635062217712
			],
			"min":[
				0.16456615924835205,
				0.5939245820045471,
				-0.8409344553947449
			],
			"type":"VEC3"
		},
		{
			"bufferView":8,
			"componentType":5126,
			"count":18,
			"type":"VEC3"
		},
		{
			"bufferView":9,
			"componentType":5126,
			"count":18,
			"type":"VEC2"
		},
		{
			"bufferView":10,
			"componentType":5121,
			"count":18,
			"type":"VEC4"
		},
		{
			"bufferView":11,
			"componentType":5126,
			"count":18,
			"type":"VEC4"
		},
		{
			"bufferView":12,
			"componentType":5123,
			"count":72,
			"type":"SCALAR"
		},
		{
			"bufferView":13,
			"componentType":5126,
			"count":78,
			"max":[
				0.45783787965774536,
				1.7469204664230347,
				0.4578378200531006
			],
			"min":[
				-0.45783787965774536,
				0.8312445878982544,
				-0.4578379690647125
			],
			"type":"VEC3"
		},
		{
			"bufferView":14,
			"componentType":5126,
			"count":78,
			"type":"VEC3"
		},
		{
			"bufferView":15,
			"componentType":5126,
			"count":78,
			"type":"VEC2"
		},
		{
			"bufferView":16,
			"componentType":5121,
			"count":78,
			"type":"VEC4"
		},
		{
			"bufferView":17,
			"componentType":5126,
			"count":78,
			"type":"VEC4"
		},
		{
			"bufferView":18,
			"componentType":5123,
			"count":336,
			"type":"SCALAR"
		},
		{
			"bufferView":19,
			"componentType":5126,
			"count":71,
			"max":[
				0.558721661567688,
				0.9939834475517273,
				-1.0760314464569092
			],
			"min":[
				0.15929649770259857,
				0.5945581793785095,
				-1.8318949937820435
			],
			"type":"VEC3"
		},
		{
			"bufferView":20,
			"componentType":5126,
			"count":71,
			"type":"VEC3"
		},
		{
			"bufferView":21,
			"componentType":5126,
			"count":71,
			"type":"VEC2"
		},
		{
			"bufferView":22,
			"componentType":5121,
			"count":71,
			"type":"VEC4"
		},
		{
			"bufferView":23,
			"componentType":5126,
			"count":71,
			"type":"VEC4"
		},
		{
			"bufferView":24,
			"componentType":5123,
			"count":120,
			"type":"SCALAR"
		},
		{
			"bufferView":25,
			"componentType":5126,
			"count":25,
			"max":[
				0.4735338091850281,
				0.9087952375411987,
				-0.17957238852977753
			],
			"min":[
				0.24448424577713013,
				0.6163415908813477,
				-1.4546279907226562
			],
			"type":"VEC3"
		},
		{
			"bufferView":26,
			"componentType":5126,
			"count":25,
			"type":"VEC3"
		},
		{
			"bufferView":27,
			"componentType":5126,
			"count":25,
			"type":"VEC2"
		},
		{
			"bufferView":28,
			"componentType":5121,
			"count":25,
			"type":"VEC4"
		},
		{
			"bufferView":29,
			"componentType":5126,
			"count":25,
			"type":"VEC4"
		},
		{
			"bufferView":30,
			"componentType":5123,
			"count":84,
			"type":"SCALAR"
		},
		{
			"bufferView":31,
			"componentType":5126,
			"count":31,
			"max":[
				1.2916666666666667
			],
			"min":[
				0.041666666666666664
			],
			"type":"SCALAR"
		},
		{
			"bufferView":32,
			"componentType":5126,
			"count":31,
			"type":"VEC3"
		},
		{
			"bufferView":33,
			"componentType":5126,
			"count":31,
			"type":"VEC4"
		},
		{
			"bufferView":34,
			"componentType":5126,
			"count":2,
			"max":[
				1.2916666666666667
			],
			"min":[
				0.041666666666666664
			],
			"type":"SCALAR"
		},
		{
			"bufferView":35,
			"componentType":5126,
			"count":2,
			"type":"VEC3"
		},
		{
			"bufferView":36,
			"componentType":5126,
			"count":31,
			"type":"VEC3"
		},
		{
			"bufferView":37,
			"componentType":5126,
			"count":31,
			"type":"VEC4"
		},
		{
			"bufferView":38,
			"componentType":5126,
			"count":2,
			"type":"VEC3"
		},
		{
			"bufferView":39,
			"componentType":5126,
			"count":2,
			"type":"VEC3"
		},
		{
			"bufferView":40,
			"componentType":5126,
			"count":31,
			"type":"VEC4"
		},
		{
			"bufferView":41,
			"componentType":5126,
			"count":2,
			"type":"VEC3"
		},
		{
			"bufferView":42,
			"componentType":5126,
			"count":2,
			"max":[
				2.7083333333333335
			],
			"min":[
				0.041666666666666664
			],
			"type":"SCALAR"
		},
		{
			"bufferView":43,
			"componentType":5126,
			"count":2,
			"type":"VEC3"
		},
		{
			"bufferView":44,
			"componentType":5126,
			"count":2,
			"type":"VEC4"
		},
		{
			"bufferView":45,
			"componentType":5126,
			"count":65,
			"max":[
				2.7083333333333335
			],
			"min":[
				0.041666666666666664
			],
			"type":"SCALAR"
		},
		{
			"bufferView":46,
			"componentType":5126,
			"count":65,
			"type":"VEC3"
		},
		{
			"bufferView":47,
			"componentType":5126,
			"count":2,
			"type":"VEC3"
		},
		{
			"bufferView":48,
			"componentType":5126,
			"count":2,
			"type":"VEC4"
		},
		{
			"bufferView":49,
			"componentType":5126,
			"count":2,
			"type":"VEC3"
		},
		{
			"bufferView":50,
			"componentType":5126,
			"count":65,
			"type":"VEC3"
		},
		{
			"bufferView":51,
			"componentType":5126,
			"count":65,
			"type":"VEC4"
		},
		{
			"bufferView":52,
			"componentType":5126,
			"count":2,
			"type":"VEC3"
		},
		{
			"bufferView":53,
			"componentType":5126,
			"count":2,
			"type":"VEC3"
		},
		{
			"bufferView":54,
			"componentType":5126,
			"count":31,
			"type":"VEC4"
		},
		{
			"bufferView":55,
			"componentType":5126,
			"count":31,
			"type":"VEC3"
		},
		{
			"bufferView":56,
			"componentType":5126,
			"count":2,
			"type":"VEC3"
		},
		{
			"bufferView":57,
			"componentType":5126,
			"count":2,
			"type":"VEC4"
		},
		{
			"bufferView":58,
			"componentType":5126,
			"count":2,
			"type":"VEC3"
		},
		{
			"bufferView":59,
			"componentType":5126,
			"count":31,
			"type":"VEC3"
		},
		{
			"bufferView":60,
			"componentType":5126,
			"count":31,
			"type":"VEC4"
		},
		{
			"bufferView":61,
			"componentType":5126,
			"count":31,
			"type":"VEC3"
		}
	],
	"bufferViews":[
		{
			"buffer":0,
			"byteLength":1164,
			"byteOffset":0,
			"target":34962
		},
		{
			"buffer":0,
			"byteLength":1164,
			"byteOffset":1164,
			"target":34962
		},
		{
			"buffer":0,
			"byteLength":776,
			"byteOffset":2328,
			"target":34962
		},
		{
			"buffer":0,
			"byteLength":388,
			"byteOffset":3104,
			"target":34962
		},
		{
			"buffer":0,
			"byteLength":1552,
			"byteOffset":3492,
			"target":34962
		},
		{
			"buffer":0,
			"byteLength":480,
			"byteOffset":5044,
			"target":34963
		},
		{
			"buffer":0,
			"byteLength":192,
			"byteOffset":5524
		},
		{
			"buffer":0,
			"byteLength":216,
			"byteOffset":5716,
			"target":34962
		},
		{
			"buffer":0,
			"byteLength":216,
			"byteOffset":5932,
			"target":34962
		},
		{
			"buffer":0,
			"byteLength":144,
			"byteOffset":6148,
			"target":34962
		},
		{
			"buffer":0,
			"byteLength":72,
			"byteOffset":6292,
			"target":34962
		},
		{
			"buffer":0,
			"byteLength":288,
			"byteOffset":6364,
			"target":34962
		},
		{
			"buffer":0,
			"byteLength":144,
			"byteOffset":6652,
			"target":34963
		},
		{
			"buffer":0,
			"byteLength":936,
			"byteOffset":6796,
			"target":34962
		},
		{
			"buffer":0,
			"byteLength":936,
			"byteOffset":7732,
			"target":34962
		},
		{
			"buffer":0,
			"byteLength":624,
			"byteOffset":8668,
			"target":34962
		},
		{
			"buffer":0,
			"byteLength":312,
			"byteOffset":9292,
			"target":34962
		},
		{
			"buffer":0,
			"byteLength":1248,
			"byteOffset":9604,
			"target":34962
		},
		{
			"buffer":0,
			"byteLength":672,
			"byteOffset":10852,
			"target":34963
		},
		{
			"buffer":0,
			"byteLength":852,
			"byteOffset":11524,
			"target":34962
		},
		{
			"buffer":0,
			"byteLength":852,
			"byteOffset":12376,
			"target":34962
		},
		{
			"buffer":0,
			"byteLength":568,
			"byteOffset":13228,
			"target":34962
		},
		{
			"buffer":0,
			"byteLength":284,
			"byteOffset":13796,
			"target":34962
		},
		{
			"buffer":0,
			"byteLength":1136,
			"byteOffset":14080,
			"target":34962
		},
		{
			"buffer":0,
			"byteLength":240,
			"byteOffset":15216,
			"target":34963
		},
		{
			"buffer":0,
			"byteLength":300,
			"byteOffset":15456,
			"target":34962
		},
		{
			"buffer":0,
			"byteLength":300,
			"byteOffset":15756,
			"target":34962
		},
		{
			"buffer":0,
			"byteLength":200,
			"byteOffset":16056,
			"target":34962
		},
		{
			"buffer":0,
			"byteLength":100,
			"byteOffset":16256,
			"target":34962
		},
		{
			"buffer":0,
			"byteLength":400,
			"byteOffset":16356,
			"target":34962
		},
		{
			"buffer":0,
			"byteLength":168,
			"byteOffset":16756,
			"target":34963
		},
		{
			"buffer":0,
			"byteLength":124,
			"byteOffset":16924
		},
		{
			"buffer":0,
			"byteLength":372,
			"byteOffset":17048
		},
		{
			"buffer":0,
			"byteLength":496,
			"byteOffset":17420
		},
		{
			"buffer":0,
			"byteLength":8,
			"byteOffset":17916
		},
		{
			"buffer":0,
			"byteLength":24,
			"byteOffset":17924
		},
		{
			"buffer":0,
			"byteLength":372,
			"byteOffset":17948
		},
		{
			"buffer":0,
			"byteLength":496,
			"byteOffset":18320
		},
		{
			"buffer":0,
			"byteLength":24,
			"byteOffset":18816
		},
		{
			"buffer":0,
			"byteLength":24,
			"byteOffset":18840
		},
		{
			"buffer":0,
			"byteLength":496,
			"byteOffset":18864
		},
		{
			"buffer":0,
			"byteLength":24,
			"byteOffset":19360
		},
		{
			"buffer":0,
			"byteLength":8,
			"byteOffset":19384
		},
		{
			"buffer":0,
			"byteLength":24,
			"byteOffset":19392
		},
		{
			"buffer":0,
			"byteLength":32,
			"byteOffset":19416
		},
		{
			"buffer":0,
			"byteLength":260,
			"byteOffset":19448
		},
		{
			"buffer":0,
			"byteLength":780,
			"byteOffset":19708
		},
		{
			"buffer":0,
			"byteLength":24,
			"byteOffset":20488
		},
		{
			"buffer":0,
			"byteLength":32,
			"byteOffset":20512
		},
		{
			"buffer":0,
			"byteLength":24,
			"byteOffset":20544
		},
		{
			"buffer":0,
			"byteLength":780,
			"byteOffset":20568
		},
		{
			"buffer":0,
			"byteLength":1040,
			"byteOffset":21348
		},
		{
			"buffer":0,
			"byteLength":24,
			"byteOffset":22388
		},
		{
			"buffer":0,
			"byteLength":24,
			"byteOffset":22412
		},
		{
			"buffer":0,
			"byteLength":496,
			"byteOffset":22436
		},
		{
			"buffer":0,
			"byteLength":372,
			"byteOffset":22932
		},
		{
			"buffer":0,
			"byteLength":24,
			"byteOffset":23304
		},
		{
			"buffer":0,
			"byteLength":32,
			"byteOffset":23328
		},
		{
			"buffer":0,
			"byteLength":24,
			"byteOffset":23360
		},
		{
			"buffer":0,
			"byteLength":372,
			"byteOffset":23384
		},
		{
			"buffer":0,
			"byteLength":496,
			"byteOffset":23756
		},
		{
			"buffer":0,
			"byteLength":372,
			"byteOffset":24252
		}
	],
	"samplers":[
		{
			"magFilter":9728,
			"minFilter":9984
		}
	],
	"buffers":[
		{
			"byteLength":24624,
			"uri":"Drizzy.bin"
		}
	]
}
