{
	"asset":{
		"generator":"Khronos glTF Blender I/O v3.6.28",
		"version":"2.0"
	},
	"extensionsUsed":[
		"KHR_materials_specular",
		"KHR_materials_ior"
	],
	"scene":0,
	"scenes":[
		{
			"name":"Scene",
			"nodes":[
				0
			]
		}
	],
	"nodes":[
		{
			"mesh":0,
			"name":"Level1",
			"rotation":[
				0.7071068286895752,
				0,
				0,
				0.7071068286895752
			]
		}
	],
	"materials":[
		{
			"doubleSided":true,
			"extensions":{
				"KHR_materials_specular":{
					"specularColorFactor":[
						0,
						0,
						0
					]
				},
				"KHR_materials_ior":{
					"ior":1.4500000476837158
				}
			},
			"name":"Union1Mtl",
			"pbrMetallicRoughness":{
				"baseColorFactor":[
					0.800000011920929,
					0.800000011920929,
					0.800000011920929,
					1
				],
				"metallicFactor":0
			}
		},
		{
			"doubleSided":true,
			"extensions":{
				"KHR_materials_specular":{
					"specularColorFactor":[
						0,
						0,
						0
					]
				},
				"KHR_materials_ior":{
					"ior":1.4500000476837158
				}
			},
			"name":"Part1Mtl.001",
			"pbrMetallicRoughness":{
				"baseColorFactor":[
					0.800000011920929,
					0.800000011920929,
					0.800000011920929,
					1
				],
				"metallicFactor":0
			}
		},
		{
			"doubleSided":true,
			"extensions":{
				"KHR_materials_specular":{
					"specularColorFactor":[
						0,
						0,
						0
					]
				},
				"KHR_materials_ior":{
					"ior":1.4500000476837158
				}
			},
			"name":"Part20Mtl",
			"pbrMetallicRoughness":{
				"baseColorFactor":[
					0.800000011920929,
					0.800000011920929,
					0.800000011920929,
					1
				],
				"metallicFactor":0
			}
		}
	],
	"meshes":[
		{
			"name":"Level1",
			"primitives":[
				{
					"attributes":{
						"POSITION":0,
						"NORMAL":1,
						"TEXCOORD_0":2
					},
					"indices":3,
					"material":0
				},
				{
					"attributes":{
						"POSITION":4,
						"NORMAL":5,
						"TEXCOORD_0":6
					},
					"indices":7,
					"material":1
				},
				{
					"attributes":{
						"POSITION":8,
						"NORMAL":9,
						"TEXCOORD_0":10
					},
					"indices":11,
					"material":2
				}
			]
		}
	],
	"accessors":[
		{
			"bufferView":0,
			"componentType":5126,
			"count":291,
			"max":[
				331,
				256,
				17
			],
			"min":[
				-181,
				-256,
				0
			],
			"type":"VEC3"
		},
		{
			"bufferView":1,
			"componentType":5126,
			"count":291,
			"type":"VEC3"
		},
		{
			"bufferView":2,
			"componentType":5126,
			"count":291,
			"type":"VEC2"
		},
		{
			"bufferView":3,
			"componentType":5123,
			"count":726,
			"type":"SCALAR"
		},
		{
			"bufferView":4,
			"componentType":5126,
			"count":1080,
			"max":[
				297,
				139,
				1.9073499970545527e-06
			],
			"min":[
				-161,
				-206,
				-54
			],
			"type":"VEC3"
		},
		{
			"bufferView":5,
			"componentType":5126,
			"count":1080,
			"type":"VEC3"
		},
		{
			"bufferView":6,
			"componentType":5126,
			"count":1080,
			"type":"VEC2"
		},
		{
			"bufferView":7,
			"componentType":5123,
			"count":1620,
			"type":"SCALAR"
		},
		{
			"bufferView":8,
			"componentType":5126,
			"count":20,
			"max":[
				263,
				-46.44430160522461,
				0
			],
			"min":[
				233,
				-96.44429779052734,
				-23
			],
			"type":"VEC3"
		},
		{
			"bufferView":9,
			"componentType":5126,
			"count":20,
			"type":"VEC3"
		},
		{
			"bufferView":10,
			"componentType":5126,
			"count":20,
			"type":"VEC2"
		},
		{
			"bufferView":11,
			"componentType":5123,
			"count":30,
			"type":"SCALAR"
		}
	],
	"bufferViews":[
		{
			"buffer":0,
			"byteLength":3492,
			"byteOffset":0,
			"target":34962
		},
		{
			"buffer":0,
			"byteLength":3492,
			"byteOffset":3492,
			"target":34962
		},
		{
			"buffer":0,
			"byteLength":2328,
			"byteOffset":6984,
			"target":34962
		},
		{
			"buffer":0,
			"byteLength":1452,
			"byteOffset":9312,
			"target":34963
		},
		{
			"buffer":0,
			"byteLength":12960,
			"byteOffset":10764,
			"target":34962
		},
		{
			"buffer":0,
			"byteLength":12960,
			"byteOffset":23724,
			"target":34962
		},
		{
			"buffer":0,
			"byteLength":8640,
			"byteOffset":36684,
			"target":34962
		},
		{
			"buffer":0,
			"byteLength":3240,
			"byteOffset":45324,
			"target":34963
		},
		{
			"buffer":0,
			"byteLength":240,
			"byteOffset":48564,
			"target":34962
		},
		{
			"buffer":0,
			"byteLength":240,
			"byteOffset":48804,
			"target":34962
		},
		{
			"buffer":0,
			"byteLength":160,
			"byteOffset":49044,
			"target":34962
		},
		{
			"buffer":0,
			"byteLength":60,
			"byteOffset":49204,
			"target":34963
		}
	],
	"buffers":[
		{
			"byteLength":49264,
			"uri":"importTest.bin"
		}
	]
}
