{
	"asset":{
		"generator":"Khronos glTF Blender I/O v4.4.56",
		"version":"2.0"
	},
	"scene":0,
	"scenes":[
		{
			"name":"Scene",
			"nodes":[
				0
			]
		}
	],
	"nodes":[
		{
			"mesh":0,
			"name":"Plane.002",
			"rotation":[
				-1,
				0,
				0,
				1.6292068494294654e-07
			],
			"scale":[
				-151.7627716064453,
				-151.7627716064453,
				-151.7627716064453
			],
			"translation":[
				0.022457122802734375,
				34.63163757324219,
				1.1386947631835938
			]
		}
	],
	"meshes":[
		{
			"name":"Plane.002",
			"primitives":[
				{
					"attributes":{
						"POSITION":0,
						"NORMAL":1,
						"TEXCOORD_0":2
					},
					"indices":3
				}
			]
		}
	],
	"accessors":[
		{
			"bufferView":0,
			"componentType":5126,
			"count":3060,
			"max":[
				1,
				0.15397951006889343,
				1
			],
			"min":[
				-1,
				-0.30726662278175354,
				-1
			],
			"type":"VEC3"
		},
		{
			"bufferView":1,
			"componentType":5126,
			"count":3060,
			"type":"VEC3"
		},
		{
			"bufferView":2,
			"componentType":5126,
			"count":3060,
			"type":"VEC2"
		},
		{
			"bufferView":3,
			"componentType":5123,
			"count":9714,
			"type":"SCALAR"
		}
	],
	"bufferViews":[
		{
			"buffer":0,
			"byteLength":36720,
			"byteOffset":0,
			"target":34962
		},
		{
			"buffer":0,
			"byteLength":36720,
			"byteOffset":36720,
			"target":34962
		},
		{
			"buffer":0,
			"byteLength":24480,
			"byteOffset":73440,
			"target":34962
		},
		{
			"buffer":0,
			"byteLength":19428,
			"byteOffset":97920,
			"target":34963
		}
	],
	"buffers":[
		{
			"byteLength":117348,
			"uri":"map1.bin"
		}
	]
}
