{
	"asset":{
		"generator":"Khronos glTF Blender I/O v3.6.28",
		"version":"2.0"
	},
	"extensionsUsed":[
		"KHR_materials_specular",
		"KHR_materials_ior"
	],
	"scene":0,
	"scenes":[
		{
			"name":"Scene",
			"nodes":[
				6
			]
		}
	],
	"nodes":[
		{
			"name":"Bone",
			"scale":[
				1.0000001192092896,
				1.0000001192092896,
				1.0000001192092896
			]
		},
		{
			"mesh":0,
			"name":"Cube.001",
			"skin":0
		},
		{
			"mesh":1,
			"name":"Cube.003",
			"skin":0
		},
		{
			"mesh":2,
			"name":"Sphere",
			"skin":0
		},
		{
			"mesh":3,
			"name":"Sphere.001",
			"skin":0
		},
		{
			"mesh":4,
			"name":"Sphere.002",
			"skin":0
		},
		{
			"children":[
				1,
				2,
				3,
				4,
				5,
				0
			],
			"name":"Armature",
			"scale":[
				1.9425933361053467,
				1.9425933361053467,
				1.9425933361053467
			]
		}
	],
	"animations":[
		{
			"channels":[
				{
					"sampler":0,
					"target":{
						"node":0,
						"path":"translation"
					}
				},
				{
					"sampler":1,
					"target":{
						"node":0,
						"path":"rotation"
					}
				},
				{
					"sampler":2,
					"target":{
						"node":0,
						"path":"scale"
					}
				}
			],
			"name":"Fall",
			"samplers":[
				{
					"input":31,
					"interpolation":"STEP",
					"output":32
				},
				{
					"input":33,
					"interpolation":"LINEAR",
					"output":34
				},
				{
					"input":31,
					"interpolation":"STEP",
					"output":35
				}
			]
		},
		{
			"channels":[
				{
					"sampler":0,
					"target":{
						"node":0,
						"path":"translation"
					}
				},
				{
					"sampler":1,
					"target":{
						"node":0,
						"path":"rotation"
					}
				},
				{
					"sampler":2,
					"target":{
						"node":0,
						"path":"scale"
					}
				}
			],
			"name":"Idle",
			"samplers":[
				{
					"input":31,
					"interpolation":"STEP",
					"output":36
				},
				{
					"input":31,
					"interpolation":"STEP",
					"output":37
				},
				{
					"input":33,
					"interpolation":"LINEAR",
					"output":38
				}
			]
		},
		{
			"channels":[
				{
					"sampler":0,
					"target":{
						"node":0,
						"path":"translation"
					}
				},
				{
					"sampler":1,
					"target":{
						"node":0,
						"path":"rotation"
					}
				},
				{
					"sampler":2,
					"target":{
						"node":0,
						"path":"scale"
					}
				}
			],
			"name":"Run",
			"samplers":[
				{
					"input":33,
					"interpolation":"LINEAR",
					"output":39
				},
				{
					"input":33,
					"interpolation":"LINEAR",
					"output":40
				},
				{
					"input":33,
					"interpolation":"LINEAR",
					"output":41
				}
			]
		}
	],
	"materials":[
		{
			"doubleSided":true,
			"extensions":{
				"KHR_materials_specular":{
					"specularColorFactor":[
						0,
						0,
						0
					]
				},
				"KHR_materials_ior":{
					"ior":1.4500000476837158
				}
			},
			"name":"Material.001",
			"pbrMetallicRoughness":{
				"baseColorTexture":{
					"index":0
				},
				"metallicFactor":0
			}
		}
	],
	"meshes":[
		{
			"name":"Cube.002",
			"primitives":[
				{
					"attributes":{
						"POSITION":0,
						"NORMAL":1,
						"TEXCOORD_0":2,
						"JOINTS_0":3,
						"WEIGHTS_0":4
					},
					"indices":5,
					"material":0
				}
			]
		},
		{
			"name":"Cube.005",
			"primitives":[
				{
					"attributes":{
						"POSITION":7,
						"NORMAL":8,
						"TEXCOORD_0":9,
						"JOINTS_0":10,
						"WEIGHTS_0":11
					},
					"indices":12,
					"material":0
				}
			]
		},
		{
			"name":"Sphere",
			"primitives":[
				{
					"attributes":{
						"POSITION":13,
						"NORMAL":14,
						"TEXCOORD_0":15,
						"JOINTS_0":16,
						"WEIGHTS_0":17
					},
					"indices":18,
					"material":0
				}
			]
		},
		{
			"name":"Sphere.003",
			"primitives":[
				{
					"attributes":{
						"POSITION":19,
						"NORMAL":20,
						"TEXCOORD_0":21,
						"JOINTS_0":22,
						"WEIGHTS_0":23
					},
					"indices":24,
					"material":0
				}
			]
		},
		{
			"name":"Sphere.002",
			"primitives":[
				{
					"attributes":{
						"POSITION":25,
						"NORMAL":26,
						"TEXCOORD_0":27,
						"JOINTS_0":28,
						"WEIGHTS_0":29
					},
					"indices":30,
					"material":0
				}
			]
		}
	],
	"textures":[
		{
			"sampler":0,
			"source":0
		}
	],
	"images":[
		{
			"mimeType":"image/png",
			"name":"Nun.png",
			"uri":"../Textures/Nun.png"
		}
	],
	"skins":[
		{
			"inverseBindMatrices":6,
			"joints":[
				0
			],
			"name":"Armature"
		}
	],
	"accessors":[
		{
			"bufferView":0,
			"componentType":5126,
			"count":18,
			"max":[
				0.46056410670280457,
				0.6696579456329346,
				-0.08933021873235703
			],
			"min":[
				0.09381798654794693,
				0.4397434890270233,
				-0.8927405476570129
			],
			"type":"VEC3"
		},
		{
			"bufferView":1,
			"componentType":5126,
			"count":18,
			"type":"VEC3"
		},
		{
			"bufferView":2,
			"componentType":5126,
			"count":18,
			"type":"VEC2"
		},
		{
			"bufferView":3,
			"componentType":5121,
			"count":18,
			"type":"VEC4"
		},
		{
			"bufferView":4,
			"componentType":5126,
			"count":18,
			"type":"VEC4"
		},
		{
			"bufferView":5,
			"componentType":5123,
			"count":72,
			"type":"SCALAR"
		},
		{
			"bufferView":6,
			"componentType":5126,
			"count":1,
			"type":"MAT4"
		},
		{
			"bufferView":7,
			"componentType":5126,
			"count":25,
			"max":[
				0.42181962728500366,
				0.7740117907524109,
				-0.19063501060009003
			],
			"min":[
				0.17865942418575287,
				0.4635414779186249,
				-1.5442408323287964
			],
			"type":"VEC3"
		},
		{
			"bufferView":8,
			"componentType":5126,
			"count":25,
			"type":"VEC3"
		},
		{
			"bufferView":9,
			"componentType":5126,
			"count":25,
			"type":"VEC2"
		},
		{
			"bufferView":10,
			"componentType":5121,
			"count":25,
			"type":"VEC4"
		},
		{
			"bufferView":11,
			"componentType":5126,
			"count":25,
			"type":"VEC4"
		},
		{
			"bufferView":12,
			"componentType":5123,
			"count":84,
			"type":"SCALAR"
		},
		{
			"bufferView":13,
			"componentType":5126,
			"count":122,
			"max":[
				0.3460865616798401,
				0.9097058773040771,
				0.3460862338542938
			],
			"min":[
				-0.3460865616798401,
				3.388918412383646e-05,
				-0.31974223256111145
			],
			"type":"VEC3"
		},
		{
			"bufferView":14,
			"componentType":5126,
			"count":122,
			"type":"VEC3"
		},
		{
			"bufferView":15,
			"componentType":5126,
			"count":122,
			"type":"VEC2"
		},
		{
			"bufferView":16,
			"componentType":5121,
			"count":122,
			"type":"VEC4"
		},
		{
			"bufferView":17,
			"componentType":5126,
			"count":122,
			"type":"VEC4"
		},
		{
			"bufferView":18,
			"componentType":5123,
			"count":630,
			"type":"SCALAR"
		},
		{
			"bufferView":19,
			"componentType":5126,
			"count":130,
			"max":[
				0.56499183177948,
				1.9445579051971436,
				0.5649915337562561
			],
			"min":[
				-0.56499183177948,
				0.7924364805221558,
				-0.5649917721748352
			],
			"type":"VEC3"
		},
		{
			"bufferView":20,
			"componentType":5126,
			"count":130,
			"type":"VEC3"
		},
		{
			"bufferView":21,
			"componentType":5126,
			"count":130,
			"type":"VEC2"
		},
		{
			"bufferView":22,
			"componentType":5121,
			"count":130,
			"type":"VEC4"
		},
		{
			"bufferView":23,
			"componentType":5126,
			"count":130,
			"type":"VEC4"
		},
		{
			"bufferView":24,
			"componentType":5123,
			"count":768,
			"type":"SCALAR"
		},
		{
			"bufferView":25,
			"componentType":5126,
			"count":100,
			"max":[
				0.6721769571304321,
				1.9846271276474,
				0.658708930015564
			],
			"min":[
				-0.6721769571304321,
				0.3569585978984833,
				-0.6466445326805115
			],
			"type":"VEC3"
		},
		{
			"bufferView":26,
			"componentType":5126,
			"count":100,
			"type":"VEC3"
		},
		{
			"bufferView":27,
			"componentType":5126,
			"count":100,
			"type":"VEC2"
		},
		{
			"bufferView":28,
			"componentType":5121,
			"count":100,
			"type":"VEC4"
		},
		{
			"bufferView":29,
			"componentType":5126,
			"count":100,
			"type":"VEC4"
		},
		{
			"bufferView":30,
			"componentType":5123,
			"count":432,
			"type":"SCALAR"
		},
		{
			"bufferView":31,
			"componentType":5126,
			"count":2,
			"max":[
				1.2916666666666667
			],
			"min":[
				0.041666666666666664
			],
			"type":"SCALAR"
		},
		{
			"bufferView":32,
			"componentType":5126,
			"count":2,
			"type":"VEC3"
		},
		{
			"bufferView":33,
			"componentType":5126,
			"count":31,
			"max":[
				1.2916666666666667
			],
			"min":[
				0.041666666666666664
			],
			"type":"SCALAR"
		},
		{
			"bufferView":34,
			"componentType":5126,
			"count":31,
			"type":"VEC4"
		},
		{
			"bufferView":35,
			"componentType":5126,
			"count":2,
			"type":"VEC3"
		},
		{
			"bufferView":36,
			"componentType":5126,
			"count":2,
			"type":"VEC3"
		},
		{
			"bufferView":37,
			"componentType":5126,
			"count":2,
			"type":"VEC4"
		},
		{
			"bufferView":38,
			"componentType":5126,
			"count":31,
			"type":"VEC3"
		},
		{
			"bufferView":39,
			"componentType":5126,
			"count":31,
			"type":"VEC3"
		},
		{
			"bufferView":40,
			"componentType":5126,
			"count":31,
			"type":"VEC4"
		},
		{
			"bufferView":41,
			"componentType":5126,
			"count":31,
			"type":"VEC3"
		}
	],
	"bufferViews":[
		{
			"buffer":0,
			"byteLength":216,
			"byteOffset":0,
			"target":34962
		},
		{
			"buffer":0,
			"byteLength":216,
			"byteOffset":216,
			"target":34962
		},
		{
			"buffer":0,
			"byteLength":144,
			"byteOffset":432,
			"target":34962
		},
		{
			"buffer":0,
			"byteLength":72,
			"byteOffset":576,
			"target":34962
		},
		{
			"buffer":0,
			"byteLength":288,
			"byteOffset":648,
			"target":34962
		},
		{
			"buffer":0,
			"byteLength":144,
			"byteOffset":936,
			"target":34963
		},
		{
			"buffer":0,
			"byteLength":64,
			"byteOffset":1080
		},
		{
			"buffer":0,
			"byteLength":300,
			"byteOffset":1144,
			"target":34962
		},
		{
			"buffer":0,
			"byteLength":300,
			"byteOffset":1444,
			"target":34962
		},
		{
			"buffer":0,
			"byteLength":200,
			"byteOffset":1744,
			"target":34962
		},
		{
			"buffer":0,
			"byteLength":100,
			"byteOffset":1944,
			"target":34962
		},
		{
			"buffer":0,
			"byteLength":400,
			"byteOffset":2044,
			"target":34962
		},
		{
			"buffer":0,
			"byteLength":168,
			"byteOffset":2444,
			"target":34963
		},
		{
			"buffer":0,
			"byteLength":1464,
			"byteOffset":2612,
			"target":34962
		},
		{
			"buffer":0,
			"byteLength":1464,
			"byteOffset":4076,
			"target":34962
		},
		{
			"buffer":0,
			"byteLength":976,
			"byteOffset":5540,
			"target":34962
		},
		{
			"buffer":0,
			"byteLength":488,
			"byteOffset":6516,
			"target":34962
		},
		{
			"buffer":0,
			"byteLength":1952,
			"byteOffset":7004,
			"target":34962
		},
		{
			"buffer":0,
			"byteLength":1260,
			"byteOffset":8956,
			"target":34963
		},
		{
			"buffer":0,
			"byteLength":1560,
			"byteOffset":10216,
			"target":34962
		},
		{
			"buffer":0,
			"byteLength":1560,
			"byteOffset":11776,
			"target":34962
		},
		{
			"buffer":0,
			"byteLength":1040,
			"byteOffset":13336,
			"target":34962
		},
		{
			"buffer":0,
			"byteLength":520,
			"byteOffset":14376,
			"target":34962
		},
		{
			"buffer":0,
			"byteLength":2080,
			"byteOffset":14896,
			"target":34962
		},
		{
			"buffer":0,
			"byteLength":1536,
			"byteOffset":16976,
			"target":34963
		},
		{
			"buffer":0,
			"byteLength":1200,
			"byteOffset":18512,
			"target":34962
		},
		{
			"buffer":0,
			"byteLength":1200,
			"byteOffset":19712,
			"target":34962
		},
		{
			"buffer":0,
			"byteLength":800,
			"byteOffset":20912,
			"target":34962
		},
		{
			"buffer":0,
			"byteLength":400,
			"byteOffset":21712,
			"target":34962
		},
		{
			"buffer":0,
			"byteLength":1600,
			"byteOffset":22112,
			"target":34962
		},
		{
			"buffer":0,
			"byteLength":864,
			"byteOffset":23712,
			"target":34963
		},
		{
			"buffer":0,
			"byteLength":8,
			"byteOffset":24576
		},
		{
			"buffer":0,
			"byteLength":24,
			"byteOffset":24584
		},
		{
			"buffer":0,
			"byteLength":124,
			"byteOffset":24608
		},
		{
			"buffer":0,
			"byteLength":496,
			"byteOffset":24732
		},
		{
			"buffer":0,
			"byteLength":24,
			"byteOffset":25228
		},
		{
			"buffer":0,
			"byteLength":24,
			"byteOffset":25252
		},
		{
			"buffer":0,
			"byteLength":32,
			"byteOffset":25276
		},
		{
			"buffer":0,
			"byteLength":372,
			"byteOffset":25308
		},
		{
			"buffer":0,
			"byteLength":372,
			"byteOffset":25680
		},
		{
			"buffer":0,
			"byteLength":496,
			"byteOffset":26052
		},
		{
			"buffer":0,
			"byteLength":372,
			"byteOffset":26548
		}
	],
	"samplers":[
		{
			"magFilter":9729,
			"minFilter":9987
		}
	],
	"buffers":[
		{
			"byteLength":26920,
			"uri":"Nun.bin"
		}
	]
}
