{
	"asset":{
		"generator":"Khronos glTF Blender I/O v3.6.28",
		"version":"2.0"
	},
	"scene":0,
	"scenes":[
		{
			"name":"Scene",
			"nodes":[
				0
			]
		}
	],
	"nodes":[
		{
			"mesh":0,
			"name":"Level1V2",
			"rotation":[
				0.7071068286895752,
				0,
				0,
				0.7071068286895752
			]
		}
	],
	"materials":[
		{
			"doubleSided":true,
			"name":"Union1Mtl",
			"pbrMetallicRoughness":{
				"baseColorFactor":[
					0.800000011920929,
					0.800000011920929,
					0.800000011920929,
					1
				],
				"metallicFactor":0,
				"roughnessFactor":0.5
			}
		},
		{
			"doubleSided":true,
			"name":"Part1Mtl",
			"pbrMetallicRoughness":{
				"baseColorFactor":[
					0.800000011920929,
					0.800000011920929,
					0.800000011920929,
					1
				],
				"metallicFactor":0,
				"roughnessFactor":0.5
			}
		},
		{
			"doubleSided":true,
			"name":"Part45Mtl",
			"pbrMetallicRoughness":{
				"baseColorFactor":[
					0.800000011920929,
					0.800000011920929,
					0.800000011920929,
					1
				],
				"metallicFactor":0,
				"roughnessFactor":0.5
			}
		}
	],
	"meshes":[
		{
			"name":"Level1V2",
			"primitives":[
				{
					"attributes":{
						"POSITION":0,
						"NORMAL":1,
						"TEXCOORD_0":2
					},
					"indices":3,
					"material":0
				},
				{
					"attributes":{
						"POSITION":4,
						"NORMAL":5,
						"TEXCOORD_0":6
					},
					"indices":7,
					"material":1
				},
				{
					"attributes":{
						"POSITION":8,
						"NORMAL":9,
						"TEXCOORD_0":10
					},
					"indices":11,
					"material":2
				}
			]
		}
	],
	"accessors":[
		{
			"bufferView":0,
			"componentType":5126,
			"count":270,
			"max":[
				331,
				256,
				17
			],
			"min":[
				-181,
				-256,
				0
			],
			"type":"VEC3"
		},
		{
			"bufferView":1,
			"componentType":5126,
			"count":270,
			"type":"VEC3"
		},
		{
			"bufferView":2,
			"componentType":5126,
			"count":270,
			"type":"VEC2"
		},
		{
			"bufferView":3,
			"componentType":5123,
			"count":708,
			"type":"SCALAR"
		},
		{
			"bufferView":4,
			"componentType":5126,
			"count":1560,
			"max":[
				261,
				139,
				1.9073499970545527e-06
			],
			"min":[
				-125,
				-206,
				-54
			],
			"type":"VEC3"
		},
		{
			"bufferView":5,
			"componentType":5126,
			"count":1560,
			"type":"VEC3"
		},
		{
			"bufferView":6,
			"componentType":5126,
			"count":1560,
			"type":"VEC2"
		},
		{
			"bufferView":7,
			"componentType":5123,
			"count":2340,
			"type":"SCALAR"
		},
		{
			"bufferView":8,
			"componentType":5126,
			"count":1737,
			"max":[
				227,
				57.149200439453125,
				4.6610799472546205e-05
			],
			"min":[
				70.26789855957031,
				-128,
				-23
			],
			"type":"VEC3"
		},
		{
			"bufferView":9,
			"componentType":5126,
			"count":1737,
			"type":"VEC3"
		},
		{
			"bufferView":10,
			"componentType":5126,
			"count":1737,
			"type":"VEC2"
		},
		{
			"bufferView":11,
			"componentType":5123,
			"count":2598,
			"type":"SCALAR"
		}
	],
	"bufferViews":[
		{
			"buffer":0,
			"byteLength":3240,
			"byteOffset":0,
			"target":34962
		},
		{
			"buffer":0,
			"byteLength":3240,
			"byteOffset":3240,
			"target":34962
		},
		{
			"buffer":0,
			"byteLength":2160,
			"byteOffset":6480,
			"target":34962
		},
		{
			"buffer":0,
			"byteLength":1416,
			"byteOffset":8640,
			"target":34963
		},
		{
			"buffer":0,
			"byteLength":18720,
			"byteOffset":10056,
			"target":34962
		},
		{
			"buffer":0,
			"byteLength":18720,
			"byteOffset":28776,
			"target":34962
		},
		{
			"buffer":0,
			"byteLength":12480,
			"byteOffset":47496,
			"target":34962
		},
		{
			"buffer":0,
			"byteLength":4680,
			"byteOffset":59976,
			"target":34963
		},
		{
			"buffer":0,
			"byteLength":20844,
			"byteOffset":64656,
			"target":34962
		},
		{
			"buffer":0,
			"byteLength":20844,
			"byteOffset":85500,
			"target":34962
		},
		{
			"buffer":0,
			"byteLength":13896,
			"byteOffset":106344,
			"target":34962
		},
		{
			"buffer":0,
			"byteLength":5196,
			"byteOffset":120240,
			"target":34963
		}
	],
	"buffers":[
		{
			"byteLength":125436,
			"uri":"TestLevel.bin"
		}
	]
}
