{
	"asset":{
		"generator":"Khronos glTF Blender I/O v3.6.28",
		"version":"2.0"
	},
	"extensionsUsed":[
		"KHR_materials_specular",
		"KHR_materials_ior"
	],
	"scene":0,
	"scenes":[
		{
			"name":"Scene",
			"nodes":[
				0
			]
		}
	],
	"nodes":[
		{
			"mesh":0,
			"name":"Cube",
			"scale":[
				1.1934722661972046,
				1.1934722661972046,
				1.1934722661972046
			],
			"translation":[
				0,
				0.3599134683609009,
				-2.694100658118259e-06
			]
		}
	],
	"materials":[
		{
			"doubleSided":true,
			"extensions":{
				"KHR_materials_specular":{
					"specularColorFactor":[
						0,
						0,
						0
					]
				},
				"KHR_materials_ior":{
					"ior":1.4500000476837158
				}
			},
			"name":"Material",
			"pbrMetallicRoughness":{
				"baseColorTexture":{
					"index":0
				},
				"metallicFactor":0
			}
		}
	],
	"meshes":[
		{
			"name":"Cube",
			"primitives":[
				{
					"attributes":{
						"POSITION":0,
						"NORMAL":1,
						"TEXCOORD_0":2
					},
					"indices":3,
					"material":0
				}
			]
		}
	],
	"textures":[
		{
			"sampler":0,
			"source":0
		}
	],
	"images":[
		{
			"mimeType":"image/png",
			"name":"ROCK06.png.001",
			"uri":"../Textures/ROCK06.png"
		}
	],
	"accessors":[
		{
			"bufferView":0,
			"componentType":5126,
			"count":1013,
			"max":[
				65.59439849853516,
				8.07734489440918,
				65.59439849853516
			],
			"min":[
				-65.59439849853516,
				0,
				-65.59439849853516
			],
			"type":"VEC3"
		},
		{
			"bufferView":1,
			"componentType":5126,
			"count":1013,
			"type":"VEC3"
		},
		{
			"bufferView":2,
			"componentType":5126,
			"count":1013,
			"type":"VEC2"
		},
		{
			"bufferView":3,
			"componentType":5123,
			"count":4320,
			"type":"SCALAR"
		}
	],
	"bufferViews":[
		{
			"buffer":0,
			"byteLength":12156,
			"byteOffset":0,
			"target":34962
		},
		{
			"buffer":0,
			"byteLength":12156,
			"byteOffset":12156,
			"target":34962
		},
		{
			"buffer":0,
			"byteLength":8104,
			"byteOffset":24312,
			"target":34962
		},
		{
			"buffer":0,
			"byteLength":8640,
			"byteOffset":32416,
			"target":34963
		}
	],
	"samplers":[
		{
			"magFilter":9729,
			"minFilter":9987
		}
	],
	"buffers":[
		{
			"byteLength":41056,
			"uri":"TestLevel.bin"
		}
	]
}
